<?xml version="1.0" ?><svg height="16pt" viewBox="0 -26 512 512" width="16pt" xmlns="http://www.w3.org/2000/svg"><path d="m94.792969 10-13.792969 200h49l-13.792969-200zm0 0" fill="#ffdaae" fill-rule="evenodd"/><path d="m77.003906 210h92.992188v240h-92.992188zm0 0" fill="#986e62" fill-rule="evenodd"/><path d="m391.328125 132.644531v77.355469l-110.664063-77.351562-3.664062 74.699218v82.648438h18.996094v40h-18.996094v120.003906h225v-240zm24.671875 197.351563h-40.003906v-40h40.003906zm0 0" fill="#ff9d21" fill-rule="evenodd"/><path d="m275.996094 289.996094h20v40h-20zm0 0" fill="#96c8eb" fill-rule="evenodd"/><path d="m395.996094 289.996094h20.003906v40h-20.003906zm0 0" fill="#96c8eb" fill-rule="evenodd"/><g fill="#000001"><path d="m507.855469 201.894531-110.664063-80c-3.042968-2.203125-7.066406-2.511719-10.410156-.800781-3.34375 1.707031-5.449219 5.148438-5.449219 8.902344v60.433594l-94.808593-68.535157c-3.042969-2.203125-7.0625-2.511719-10.40625-.800781-3.347657 1.707031-5.449219 5.148438-5.449219 8.902344v60.433594l-94.808594-68.535157c-3.042969-2.203125-7.066406-2.511719-10.410156-.800781-3.34375 1.707031-5.449219 5.148438-5.449219 8.902344v70h-20.667969l-13.148437-190.683594c-.363282-5.242188-4.71875-9.3125-9.976563-9.3125h-52.414062c-5.257813 0-9.613281 4.066406-9.976563 9.3125l-13.152344 190.6875h-30.664062c-5.523438 0-10 4.476562-10 10v240c0 5.519531 4.476562 10 10 10h492c5.523438 0 10-4.480469 10-10v-240c0-3.210938-1.539062-6.226562-4.144531-8.105469zm-445.761719-21.894531h21.339844c5.519531 0 10-4.480469 10-10 0-5.523438-4.480469-10-10-10h-19.960938l9.65625-140h33.742188l12.414062 180h-58.570312zm-42.09375 40h29.964844.035156 79.996094c.011718.003906.019531.003906.023437 0h.039063 29.9375v20h-55.6875c-5.519532 0-10 4.480469-10 10 0 5.523438 4.480468 10 10 10h55.6875v20h-55.6875c-5.519532 0-10 4.476562-10 10s4.480468 10 10 10h55.6875v20h-26.722656c-5.519532 0-10 4.476562-10 10s4.480468 10 10 10h26.722656v20h-55.6875c-5.519532 0-10 4.476562-10 10 0 5.519531 4.480468 10 10 10h55.6875v19.996094h-55.6875c-5.519532 0-10 4.480468-10 10 0 5.523437 4.480468 10 10 10h55.6875v20.003906h-139.996094zm472 220h-312.003906v-290.433594l94.8125 68.535156c3.042968 2.203126 7.0625 2.511719 10.410156.800782 3.34375-1.707032 5.445312-5.148438 5.445312-8.902344v-60.433594l94.808594 68.535156c3.042969 2.203126 7.0625 2.511719 10.410156.800782 3.34375-1.707032 5.445313-5.148438 5.445313-8.902344v-60.433594l90.671875 65.542969zm0 0"/><path d="m104.308594 340h.238281c5.519531 0 10-4.476562 10-10s-4.480469-10-10-10h-.238281c-5.519532 0-10 4.476562-10 10s4.476562 10 10 10zm0 0"/><path d="m295.996094 279.996094h-40c-5.523438 0-10 4.480468-10 10v40c0 5.523437 4.476562 10 10 10h40c5.523437 0 10-4.476563 10-10v-40c0-5.519532-4.476563-10-10-10zm-10 40h-20v-20h20zm0 0"/><path d="m365.996094 289.996094v40c0 5.523437 4.480468 10 10 10h40.003906c5.523438 0 10-4.476563 10-10v-40c0-5.519532-4.476562-10-10-10h-40.003906c-5.519532 0-10 4.480468-10 10zm20 10h20.003906v20h-20.003906zm0 0"/><path d="m321.691406 399.996094h-.238281c-5.519531 0-10 4.480468-10 10 0 5.523437 4.480469 10 10 10h.238281c5.523438 0 10-4.476563 10-10 0-5.519532-4.476562-10-10-10zm0 0"/><path d="m292.722656 399.996094h-36.726562c-5.519532 0-10 4.480468-10 10 0 5.523437 4.480468 10 10 10h36.726562c5.519532 0 10-4.476563 10-10 0-5.519532-4.480468-10-10-10zm0 0"/></g></svg>
